<?xml version="1.0" encoding="UTF-8"?>
<svg id="Layer_1" xmlns="http://www.w3.org/2000/svg" version="1.1" viewBox="0 0 400 200">
  <!-- Generator: Adobe Illustrator 30.2.1, SVG Export Plug-In . SVG Version: 2.1.1 Build 1)  -->
  <defs>
    <style>
      .st0 {
        fill: #283b86;
      }
    </style>
  </defs>
  <g>
    <path class="st0" d="M75.82,17.78h16.82c1.4,0,2.54,1.14,2.54,2.54v101.75c0,1.4-1.14,2.54-2.54,2.54h-16.82c-1.4,0-2.54-1.14-2.54-2.54V20.32c0-1.4,1.14-2.54,2.54-2.54Z"/>
    <path class="st0" d="M116.03,85.72c2.85-10.19,10.2-21.57,18.84-27.8,1.26-.9,2.03-2.33,2.03-3.88V20.32c0-1.4-1.14-2.54-2.54-2.54h-16.82c-1.4,0-2.54,1.14-2.54,2.54v65.25c0,.61.85.72,1.02.14Z"/>
    <path class="st0" d="M207.13,17.78h-16.82c-1.4,0-2.54,1.14-2.54,2.54v37.6c0,1.43-1.16,2.58-2.58,2.58h-21.05c-27.11,0-49.13,21.97-49.13,49.08v12.49c0,1.4,1.14,2.54,2.54,2.54h16.82c1.4,0,2.54-1.14,2.54-2.54v-12.49c0-15.04,12.19-27.23,27.23-27.23h21.09c1.41.02,2.55,1.17,2.55,2.58v37.14c0,1.4,1.14,2.54,2.54,2.54h16.82c1.4,0,2.54-1.14,2.54-2.54V20.32c0-1.4-1.14-2.54-2.54-2.54Z"/>
    <path class="st0" d="M318.86,17.78h-16.82c-1.4,0-2.54,1.14-2.54,2.54v12.49c0,15.04-12.19,27.23-27.23,27.23h-21.09c-1.41-.02-2.55-1.17-2.55-2.58V20.32c0-1.4-1.14-2.54-2.54-2.54h-16.82c-1.4,0-2.54,1.14-2.54,2.54v101.75c0,1.4,1.14,2.54,2.54,2.54h16.82c1.4,0,2.54-1.14,2.54-2.54v-37.6c0-1.43,1.16-2.58,2.58-2.58h21.05c27.11,0,49.13-21.97,49.13-49.08v-12.49c0-1.4-1.14-2.54-2.54-2.54Z"/>
    <path class="st0" d="M320.38,56.68c-2.85,10.19-10.2,21.57-18.84,27.8-1.26.9-2.03,2.33-2.03,3.88v33.71c0,1.4,1.14,2.54,2.54,2.54h16.82c1.4,0,2.54-1.14,2.54-2.54V56.82c0-.61-.85-.72-1.02-.14Z"/>
  </g>
  <g>
    <path class="st0" d="M264.19,150.11c-8.11,0-11.53,4.22-12.08,8.14-.02.17.09.31.26.31h5.55c.26,0,.47-.09.57-.4.53-1.61,1.8-3.19,5.22-3.19,3.6,0,6,1.75,6,4.89v.99h-4.64c-9.85,0-13.68,2.94-13.68,8.22s4.06,8.69,9.75,8.69c4.25,0,7.5-1.82,8.56-3.86v3.08c0,.17.14.31.31.31h5.36c.17,0,.31-.14.31-.31v-16.49c0-6.43-3.65-10.38-11.48-10.38ZM269.68,167.12c0,3.55-2.87,6.28-6.9,6.28-3.23,0-5.18-1.74-5.18-4.26,0-2.87,2.55-3.97,9.43-3.97h2.66v1.94Z"/>
    <path class="st0" d="M149.28,150.11c-8.11,0-11.53,4.22-12.08,8.14-.02.17.09.31.26.31h5.55c.26,0,.47-.09.57-.4.53-1.61,1.8-3.19,5.22-3.19,3.6,0,6,1.75,6,4.89v.99h-4.64c-9.85,0-13.68,2.94-13.68,8.22s4.06,8.69,9.75,8.69c4.25,0,7.5-1.82,8.56-3.86v3.08c0,.17.14.31.31.31h5.36c.17,0,.31-.14.31-.31v-16.49c0-6.43-3.65-10.38-11.48-10.38ZM154.77,167.12c0,3.55-2.86,6.28-6.9,6.28-3.23,0-5.18-1.74-5.18-4.26,0-2.87,2.55-3.97,9.43-3.97h2.66v1.94Z"/>
    <path class="st0" d="M293.89,150.38c-.33-.06-.81-.1-1.24-.1-2.65,0-5.53,1.47-6.36,4.24v-3.6c0-.17-.14-.31-.31-.31h-5.29c-.17,0-.31.14-.31.31v26.08c0,.17.14.31.31.31h5.48c.17,0,.31-.14.31-.31v-13.51c0-4.87,2.09-7.62,5.85-7.62.63,0,1.15.09,1.51.16.17.03.31-.06.31-.23v-5.11c0-.17-.1-.28-.27-.31Z"/>
    <path class="st0" d="M236.85,155.34c3.5,0,5.34,1.79,5.97,4.59.07.3.24.42.52.42h5.81c.18,0,.29-.09.29-.23,0-.06-.02-.18-.05-.32-1-5.76-5.38-9.66-12.64-9.66-9.05,0-13.84,6.07-13.84,13.82s4.79,13.82,13.84,13.82c7.25,0,11.63-3.9,12.64-9.66.02-.14.05-.26.05-.32,0-.15-.11-.23-.29-.23h-5.81c-.28,0-.45.13-.52.42-.62,2.8-2.47,4.59-5.97,4.59-5.09,0-7.69-3.77-7.69-8.62s2.61-8.62,7.69-8.62Z"/>
    <path class="st0" d="M209.99,150.16c-3.57,0-6.63,1.4-8.42,4.3v-12.44c0-.17-.14-.31-.31-.31h-5.47c-.17,0-.31.14-.31.31v34.97c0,.17.14.31.31.31h5.47c.17,0,.31-.14.31-.31v-14.59c0-4.05,2.4-7.08,6.42-7.08,3.38,0,5.52,2.15,5.52,6.64v15.03c0,.17.14.31.31.31h5.51c.17,0,.31-.14.31-.31v-15.76c0-7.37-3.85-11.07-9.65-11.07Z"/>
    <path class="st0" d="M191.77,150.6h-6.43v-6.25c0-.17-.14-.31-.31-.31h-5.47c-.17,0-.31.14-.31.31v6.25h-4.32c-.17,0-.31.14-.31.31v4.44c0,.17.14.31.31.31h4.32v10.67c0,7.15,4.19,11.29,11.34,11.29h1.19c.17,0,.31-.14.31-.31v-4.44c0-.17-.14-.31-.31-.31h-.28c-4.47,0-6.16-2.25-6.16-6.11v-10.79h6.44c.17,0,.31-.14.31-.31v-4.44c0-.17-.14-.31-.31-.31Z"/>
    <path class="st0" d="M165.79,141.7h5.47c.17,0,.31.14.31.31v34.97c0,.17-.14.31-.31.31h-5.47c-.17,0-.31-.14-.31-.31v-34.97c0-.17.14-.31.31-.31Z"/>
    <path class="st0" d="M308.13,150.14c-8.57,0-13.66,6.07-13.66,13.82s5.51,13.83,13.88,13.83c6.57,0,11.12-3.48,12.38-8.09.04-.14.06-.19.06-.25,0-.15-.11-.25-.29-.25h-5.85c-.28,0-.38.15-.52.42-.76,1.59-2.48,2.95-5.68,2.95-4.67,0-7.44-2.95-7.82-6.87h20.45c.17,0,.31-.14.31-.31v-1.51c0-7.9-4.85-13.75-13.26-13.75ZM300.84,161.01c.29-3.13,2.77-5.91,7.23-5.91s6.89,2.83,7.19,5.91h-14.42Z"/>
    <path class="st0" d="M121.01,150.14c-8.57,0-13.66,6.07-13.66,13.82s5.51,13.83,13.88,13.83c6.57,0,11.12-3.48,12.38-8.09.04-.14.06-.19.06-.25,0-.15-.11-.25-.29-.25h-5.85c-.28,0-.38.15-.52.42-.76,1.59-2.48,2.95-5.68,2.95-4.67,0-7.44-2.95-7.82-6.87h20.45c.17,0,.31-.14.31-.31v-1.51c0-7.9-4.85-13.75-13.26-13.75ZM113.72,161.01c.29-3.13,2.77-5.91,7.23-5.91s6.89,2.83,7.19,5.91h-14.42Z"/>
    <path class="st0" d="M102.83,142.17h-5.66c-.17,0-.31.14-.31.31v13.32h-17.3v-13.32c0-.17-.14-.31-.31-.31h-5.66c-.17,0-.31.14-.31.31v34.51c0,.17.14.31.31.31h5.66c.17,0,.31-.14.31-.31v-15.37h17.3v15.37c0,.17.14.31.31.31h5.66c.17,0,.31-.14.31-.31v-34.51c0-.17-.14-.31-.31-.31Z"/>
  </g>
</svg>