<?xml version="1.0" encoding="UTF-8"?>
<svg id="Layer_1" xmlns="http://www.w3.org/2000/svg" xmlns:xlink="http://www.w3.org/1999/xlink" version="1.1" viewBox="0 0 189.18 62.68">
  <!-- Generator: Adobe Illustrator 30.2.1, SVG Export Plug-In . SVG Version: 2.1.1 Build 1)  -->
  <defs>
    <style>
      .st0 {
        fill: none;
      }

      .st1 {
        fill: #00a3a8;
      }

      .st2 {
        fill: url(#radial-gradient);
      }

      .st3 {
        fill: #a37b54;
      }

      .st4 {
        fill: #6a483a;
      }

      .st5 {
        fill: #067aa2;
      }

      .st6 {
        fill: #067da0;
      }

      .st7 {
        fill: #223a72;
      }

      .st8 {
        fill: #3b6343;
      }

      .st9 {
        fill: #e9373b;
      }

      .st10 {
        fill: #28aa56;
      }

      .st11 {
        fill: #00a2c4;
      }

      .st12 {
        fill: #0367af;
      }

      .st13 {
        fill: #102648;
      }

      .st14 {
        clip-path: url(#clippath);
      }
    </style>
    <clipPath id="clippath">
      <path class="st0" d="M35.15-80.43c0-4.44,2.97-8.18,7.03-9.36-2.56,1.94-4.22,5.01-4.22,8.47,0,5.25,3.81,9.6,8.81,10.46-.61.12-1.23.18-1.87.18-5.38,0-9.75-4.36-9.75-9.75M33.88-91.89c-.83,0-7.31.05-7.31,7l.03,18.32c.07,3.84,3.87,9.42,10.97,9.42s10.06-6.83,10.06-10.04v-3.52c6.52,0,11.38-4.2,11.38-10.81s-5.76-10.4-10.17-10.4c-2.53,0-9.48.02-14.95.04"/>
    </clipPath>
    <radialGradient id="radial-gradient" cx="-667.81" cy="477.76" fx="-667.81" fy="477.76" r="1.03" gradientTransform="translate(19220.33 13626.69) scale(28.71 -28.71)" gradientUnits="userSpaceOnUse">
      <stop offset="0" stop-color="#0cc1e6"/>
      <stop offset=".3" stop-color="#0a85c7"/>
      <stop offset="1" stop-color="#273777"/>
    </radialGradient>
  </defs>
  <g id="cZslLV">
    <g>
      <polygon class="st7" points="-216.59 36.14 -208.4 19.05 -200.15 36.19 -202.91 36.19 -208.37 24.55 -213.76 36.18 -216.59 36.19 -216.59 36.14"/>
      <polygon class="st7" points="-83.8 36.19 -80.2 18.89 -74.52 31.26 -68.8 18.94 -65.25 36.19 -67.93 36.19 -69.74 26.49 -74.52 36.87 -79.38 26.49 -81.2 36.19 -83.8 36.19"/>
      <path class="st7" d="M-121.16,36.19v-16.14c3.24,0,6.42-.28,9.34,1.35,5.27,2.95,4.96,11.02-.44,13.68-2.81,1.39-5.85,1.09-8.9,1.11ZM-118.59,33.88c3.18.11,7.04-.71,7.8-4.3.19-.91.2-2.08,0-2.98-.82-3.56-4.62-4.33-7.8-4.25v11.53Z"/>
      <path class="st7" d="M-160.21,20.04c2.78,0,7.34-.34,8.32,3.05.45,1.56.17,3.34-1.17,4.36.94.42,1.81,1.07,2.32,1.98.98,1.75.7,4.04-.85,5.36-2.32,1.97-5.81,1.25-8.62,1.39v-16.14ZM-157.63,26.96c1.15.02,2.84,0,3.34-1.26.22-.55.23-1.21.11-1.78-.36-1.61-2.1-1.59-3.44-1.62v4.67ZM-157.63,33.93c1.73.05,4.72.13,4.89-2.23.19-2.67-2.99-2.7-4.89-2.65v4.87Z"/>
      <polygon class="st7" points="-91.37 20.04 -91.37 22.35 -98.09 22.35 -98.09 26.23 -91.58 26.23 -91.58 28.54 -98.09 28.54 -98.09 33.88 -91.37 33.88 -91.37 36.19 -100.67 36.19 -100.67 20.04 -91.37 20.04"/>
      <path class="st7" d="M-182.02,35.35c-3.23,1.71-7.1,1.56-10.05-.64-4.37-3.26-4.37-9.64-.13-13.01,2.77-2.2,6.9-2.66,10.02-.91l.17,3.08c-3.36-3.26-9.2-2.04-10.52,2.58-1.34,4.7,2.97,8.81,7.65,7.52,1.11-.31,2.02-.91,2.88-1.66v3.04Z"/>
      <polygon class="st7" points="-144.65 36.19 -136.48 19.1 -128.26 36.19 -131.04 36.19 -136.48 24.34 -141.87 36.19 -144.65 36.19"/>
      <rect class="st7" x="-173.24" y="20.04" width="2.57" height="16.14"/>
    </g>
  </g>
  <g>
    <path class="st10" d="M-137.25,107.39c-11.22,0-11.48,17.42,0,17.45,12,0,11.22-17.45,0-17.45ZM-137.25,121.58c-5.74,0-5.74-10.77,0-10.77s6,10.77,0,10.77Z"/>
    <ellipse class="st9" cx="-173.24" cy="89.05" rx="2.9" ry="3.23"/>
    <polygon class="st10" points="-178.15 94.97 -185.63 107.91 -180.5 118.63 -184.07 124.76 -175.7 124.76 -175.15 121.18 -176.14 106.89 -178.38 106.89 -178.15 94.97"/>
    <polygon class="st10" points="-168.55 94.97 -161.09 107.91 -166.23 118.63 -162.65 124.76 -171.03 124.76 -171.57 121.18 -170.56 106.89 -168.34 106.89 -168.55 94.97"/>
    <polygon class="st10" points="-143.61 101.6 -154.62 101.6 -154.62 124.42 -150.08 122.25 -150.08 112.29 -145.31 112.29 -145.31 109.03 -150.08 109.03 -150.08 104.93 -143.61 104.93 -143.61 101.6"/>
    <path class="st10" d="M-124.1,107.91h-3.76v16.46l4.28-2.16v-5.14c0-4.43,2.32-5.79,4.72-5.79,2.9,0,1.83.05,1.83.05v13.07l4.1-2.19v-10.95h5.16v13.15l4.3-2.22v-14.24h-9.44v-4.85l-4.2,1.56v3.08c-3.05,0-5.01-.44-7.02,3.89,0-2.58.03-3.7.03-3.7Z"/>
    <rect class="st10" x="-107.78" y="100.76" width="4.25" height="3.94"/>
    <path class="st10" d="M-101.91,120.17l-.23,3.5s3.13.52,5.4.68c2.27.16,6.29-1.46,6.29-5.63,0-5.32-7.36-3.94-7.36-6.91s6.29-1.17,6.29-1.17l.26-3.03s-11.16-2.63-11.06,4.51c.1,7.15,7.49,3.44,7.49,7.04s-7.07,1.02-7.07,1.02Z"/>
  </g>
  <g>
    <path class="st11" d="M30.31,24.76c1.64.42,1.25,1.76-.88,2.99-2.13,1.23-5.18,1.88-6.82,1.46-1.64-.42-1.24-1.76.88-2.99,2.12-1.23,5.17-1.88,6.81-1.46"/>
    <path class="st11" d="M40.46,19.58c1.36.4,1.05,1.58-.68,2.63-1.74,1.06-4.24,1.59-5.61,1.2-1.36-.4-1.06-1.58.68-2.63,1.74-1.06,4.25-1.59,5.61-1.19"/>
    <path class="st11" d="M50.18,17.21c1.02.3.79,1.18-.51,1.97-1.29.79-3.17,1.19-4.18.89-1.02-.3-.79-1.18.5-1.97,1.3-.79,3.17-1.19,4.18-.89"/>
    <path class="st5" d="M30.02,39.38c2.59.67,1.97,2.78-1.38,4.72-3.35,1.94-8.16,2.97-10.75,2.3-2.59-.67-1.97-2.78,1.39-4.72,3.35-1.94,8.16-2.97,10.75-2.31"/>
    <path class="st1" d="M24.08,32.69c1.99.51,1.51,2.15-1.07,3.64-2.58,1.5-6.28,2.29-8.27,1.77-1.99-.51-1.51-2.14,1.07-3.64,2.58-1.49,6.28-2.29,8.27-1.77"/>
    <path class="st1" d="M60.33,17.64c1.29.42,1.02,1.6-.61,2.64-1.63,1.04-4,1.54-5.29,1.12-1.29-.41-1.02-1.6.61-2.64,1.63-1.04,4-1.54,5.3-1.12"/>
    <path class="st5" d="M53.32,38.18c3.72,1.19,2.76,4.38-2.14,7.12-4.89,2.74-11.88,4.01-15.6,2.82-3.72-1.19-2.76-4.37,2.13-7.12,4.89-2.75,11.88-4.01,15.6-2.83"/>
    <path class="st5" d="M67.52,29.24c2.3.71,1.8,2.76-1.11,4.58-2.92,1.82-7.14,2.72-9.44,2-2.3-.71-1.8-2.77,1.11-4.58,2.91-1.82,7.14-2.71,9.44-2"/>
    <path class="st1" d="M68.93,21.08c1.65.58,1.32,2.15-.73,3.51-2.05,1.36-5.05,1.99-6.7,1.41-1.65-.58-1.32-2.15.73-3.51,2.05-1.36,5.05-1.99,6.7-1.41"/>
    <path class="st5" d="M171.54,32.69c-.33-.23-1.11-.52-2.32-.88-.87-.25-1.3-.73-1.3-1.43,0-.44.15-.82.46-1.15.31-.32.71-.48,1.2-.48.56,0,1.04.16,1.45.47.41.32.61.72.61,1.22v.2h.64v-1.89c-.84-.52-1.76-.78-2.73-.78s-1.73.27-2.35.81c-.62.54-.92,1.24-.92,2.08,0,.95.33,1.65,1,2.09.33.21,1.08.49,2.25.82.94.25,1.41.8,1.41,1.63,0,.47-.17.88-.52,1.25-.35.36-.81.54-1.39.54s-1.09-.13-1.49-.4c-.52-.32-.78-.82-.78-1.49v-.2h-.64v2.01c.76.52,1.69.78,2.77.78s2-.28,2.7-.83c.7-.56,1.05-1.3,1.05-2.22s-.37-1.68-1.1-2.15M157.67,31.78c0-.88.26-1.62.76-2.21.5-.55,1.07-.82,1.73-.82.75,0,1.31.32,1.67.94.31.54.46,1.23.46,2.09h-4.62ZM163.2,29.07c-.7-.74-1.68-1.1-2.95-1.1-1.42,0-2.55.46-3.4,1.37-.84.91-1.26,2.12-1.26,3.62s.44,2.65,1.32,3.57c.88.92,2.03,1.38,3.47,1.38s2.51-.34,3.43-1v-1.75h-.64v.2c0,.41-.24.78-.73,1.1-.49.32-1.06.48-1.72.48-.96,0-1.73-.37-2.29-1.1-.52-.7-.78-1.65-.78-2.85v-.3h6.59c0-.07,0-.16.02-.28v-.3c0-1.27-.35-2.28-1.04-3.01M153.82,37.07h-.18c-.27,0-.46-.07-.58-.2-.05-2.29-.07-4.54-.06-6.75-.03-2.81,0-5.29.08-7.43h-2.73v.62h.2c.28,0,.47.07.56.2.08.08.12,2.3.12,6.67,0,2.53-.03,5.03-.08,7.49h2.67v-.6ZM144.16,33.77c-.6,0-1.09-.23-1.45-.7-.36-.47-.54-1.09-.54-1.87s.17-1.38.5-1.86c.34-.48.82-.71,1.47-.71,1.23,0,1.85.86,1.85,2.57s-.61,2.57-1.83,2.57M148.66,27.22h-.7v.2c0,.36-.13.58-.38.66-.08.03-.41.04-.98.04-.16,0-.52-.03-1.06-.08-.55-.05-1-.08-1.35-.08-2.62,0-3.94,1.13-3.94,3.4,0,1.27.64,2.18,1.91,2.73-.39.12-.73.33-1.02.62-.31.34-.46.69-.46,1.06,0,1.26,1.01,1.89,3.03,1.89,1.2,0,2.06.17,2.57.5.46.31.68.82.68,1.53,0,1.67-.97,2.51-2.92,2.51-.77,0-1.41-.19-1.91-.58-.5-.39-.75-.86-.75-1.41,0-.51.1-.92.3-1.23.16-.23.45-.5.89-.8h-1.04c-1.19.66-1.79,1.41-1.79,2.27,0,.79.38,1.41,1.15,1.87.72.44,1.67.66,2.83.66,1.5,0,2.7-.36,3.62-1.07.9-.67,1.35-1.53,1.35-2.57,0-1.29-.5-2.18-1.49-2.69-.76-.4-1.93-.6-3.52-.6-1.11,0-1.67-.31-1.67-.94,0-.2.11-.37.33-.51.22-.14.46-.21.73-.21.07,0,.22.01.45.04.23.03.44.04.61.04,1.15,0,2.09-.3,2.82-.9.73-.6,1.09-1.42,1.09-2.45s-.36-1.75-1.08-2.29c.48.08.77.12.87.12.5,0,.77-.25.81-.74.01-.08.02-.34.02-.78v-.2ZM135.68,35.86c-.68.67-1.27,1-1.77,1-1.1,0-1.65-.55-1.65-1.65,0-.67.28-1.21.84-1.61.56-.4,1.51-.72,2.83-.94v2.49c0,.29-.09.53-.26.7M138.59,37.07h-.2c-.32,0-.52-.12-.6-.36-.04-.12-.06-.45-.06-.98v-4.3c0-1.18-.25-2.05-.75-2.61-.5-.56-1.33-.84-2.48-.84-1.45,0-2.64.4-3.58,1.19v1.89h.58c.16-.62.47-1.15.91-1.62.45-.46.97-.69,1.56-.69,1.31,0,1.97.9,1.97,2.71v.3c-.19.15-.54.27-1.06.38-.68.13-1.37.27-2.05.4-.79.19-1.38.45-1.77.8-.51.46-.76,1.1-.76,1.95s.25,1.45.76,1.9c.51.45,1.22.67,2.13.67.97,0,1.89-.4,2.77-1.2l.2,1.02h2.43v-.6ZM121.82,31.78c0-.88.25-1.62.76-2.21.5-.55,1.07-.82,1.73-.82.75,0,1.31.32,1.67.94.31.54.46,1.23.46,2.09h-4.62ZM127.34,29.07c-.7-.74-1.68-1.1-2.95-1.1-1.42,0-2.55.46-3.4,1.37-.84.91-1.27,2.12-1.27,3.62s.44,2.65,1.32,3.57c.88.92,2.03,1.38,3.47,1.38s2.51-.34,3.43-1v-1.75h-.64v.2c0,.41-.24.78-.73,1.1-.49.32-1.06.48-1.72.48-.96,0-1.73-.37-2.29-1.1-.52-.7-.78-1.65-.78-2.85v-.3h6.59c0-.07,0-.16.02-.28v-.3c0-1.27-.35-2.28-1.04-3.01M118.44,37.07h-.2c-.44,0-.66-.15-.66-.46,0-.23-.01-.56-.03-.99-.02-.43-.03-.77-.03-.99v-3.03c0-2.45-1.09-3.68-3.26-3.68-1.2,0-2.17.65-2.9,1.95,0-.27-.05-.82-.16-1.65h-2.52v.6h.2c.41,0,.64.15.66.46.04.78.06,1.47.06,2.07v2.95c0,1.15-.04,2.28-.12,3.37h2.79v-.62h-.19c-.4,0-.62-.15-.68-.46-.01-.99-.02-1.83-.02-2.53v-1.69c0-.91.19-1.66.56-2.25.43-.68,1.04-1.02,1.85-1.02s1.33.25,1.61.74c.23.4.34,1.12.34,2.15,0,2.76-.03,4.65-.1,5.69h2.79v-.6ZM100.49,31.78c0-.88.25-1.62.76-2.21.5-.55,1.07-.82,1.73-.82.75,0,1.31.32,1.67.94.31.54.46,1.23.46,2.09h-4.62ZM106.01,29.07c-.7-.74-1.68-1.1-2.95-1.1-1.42,0-2.55.46-3.39,1.37-.84.91-1.27,2.12-1.27,3.62s.44,2.65,1.32,3.57c.88.92,2.03,1.38,3.47,1.38s2.51-.34,3.43-1v-1.75h-.64v.2c0,.41-.24.78-.73,1.1-.49.32-1.06.48-1.72.48-.96,0-1.73-.37-2.29-1.1-.52-.7-.78-1.65-.78-2.85v-.3h6.59c0-.07,0-.16.02-.28v-.3c0-1.27-.35-2.28-1.04-3.01M96.63,37.07h-.18c-.27,0-.46-.07-.58-.2-.05-2.29-.07-4.54-.06-6.75-.03-2.81,0-5.29.08-7.43h-2.73v.62h.2c.28,0,.47.07.56.2.08.08.12,2.3.12,6.67,0,2.53-.03,5.03-.08,7.49h2.67v-.6ZM90.78,34.42c0-.27.03-1.16.08-2.67h-2.85v.62h.28c.31,0,.51.07.6.22.03.96.04,1.58.04,1.85,0-.16-.01.38-.04,1.61-.98.64-1.98.96-3.01.96-1.58,0-2.85-.59-3.8-1.77-.91-1.14-1.37-2.59-1.37-4.36,0-1.86.44-3.36,1.33-4.5.88-1.14,2.09-1.71,3.62-1.71,1.71,0,3.1.6,4.16,1.79.09.28.14.47.14.56v.2h.6v-2.25c-1.3-.82-2.83-1.23-4.6-1.23-2.36,0-4.21.69-5.56,2.07-1.3,1.31-1.95,3.05-1.95,5.22s.58,3.76,1.75,4.96c1.23,1.27,3,1.91,5.3,1.91,2.12,0,3.91-.36,5.38-1.08-.07-.6-.1-1.41-.1-2.41"/>
  </g>
  <g>
    <g>
      <path class="st8" d="M75.53,128.08v-12.63h4.14v12.63h-4.14Z"/>
      <path class="st8" d="M88.83,119.12c-.07-.44-.3-.71-.6-.86-.3-.16-.67-.22-1.07-.22-.91,0-1.31.26-1.31.72,0,1.89,7.26.72,7.26,5.32,0,2.93-2.44,4.35-5.91,4.35s-5.51-1.95-5.6-4.23h3.96c.09.45.33.79.69,1,.33.21.77.32,1.17.32,1.03,0,1.72-.33,1.72-.93,0-1.91-7.26-.6-7.26-5.42,0-2.69,2.32-4.04,5.47-4.04,3.51,0,5.1,1.79,5.4,4h-3.93Z"/>
      <path class="st8" d="M95.01,128.08v-12.63h4.14v9.68h5.68v2.95h-9.83Z"/>
      <path class="st8" d="M105.57,128.08l4.52-12.63h4.21l4.53,12.63h-4.12l-.49-1.67h-4.13l-.47,1.67h-4.05ZM112.17,119.26l-1.28,4.53h2.62l-1.34-4.53Z"/>
      <path class="st8" d="M128.61,122.34l-.16-2.88v-4.01h3.97v12.63h-3.88l-4.51-6.88.16,2.88v4h-3.96v-12.63h3.87l4.51,6.89Z"/>
      <path class="st8" d="M134.77,128.08v-12.63h5.54c4.07,0,6.6,1.89,6.6,6.05,0,4.75-2.65,6.58-6.7,6.58h-5.43ZM138.91,125.13h.88c1.93,0,2.98-1.01,2.98-3.4,0-2.63-.86-3.33-3.07-3.33h-.79v6.73Z"/>
    </g>
    <polygon class="st4" points="54.11 118.18 52.85 108 51.64 108 50.17 118.18 54.11 118.18"/>
    <polygon class="st4" points="50.11 118.67 49.94 119.84 54.32 119.84 54.17 118.67 50.11 118.67"/>
    <g>
      <path class="st4" d="M49.39,128.81c.03.39.06.78.1,1.19h5.32c.04-.37.07-.76.09-1.19h-5.5Z"/>
      <path class="st4" d="M54.56,131.71c.07-.36.13-.76.19-1.21h-5.2c.05.4.12.81.2,1.21h4.81Z"/>
      <path class="st4" d="M54.77,124.84c-.04-.37-.08-.74-.14-1.12-.88-6.17-5.1,0-5.1,0,0,0-.06.42-.11,1.12h5.35Z"/>
      <path class="st4" d="M49.86,132.22c.11.47.24.94.39,1.4h3.83s.18-.49.38-1.4h-4.6Z"/>
      <path class="st4" d="M49.34,126.59h5.56c-.01-.4-.04-.81-.08-1.25h-5.43c-.02.37-.04.79-.05,1.25"/>
      <path class="st4" d="M54.91,127.11h-5.57c0,.38,0,.78.02,1.2h5.55c0-.38.01-.78,0-1.2"/>
      <rect class="st8" x="41.98" y="109.59" width="4.65" height="24.03"/>
      <rect class="st8" x="57.63" y="109.59" width="4.65" height="24.03"/>
      <rect class="st8" x="41.98" y="119.5" width="20.31" height="4.22"/>
      <path class="st4" d="M54.61,104.52c0,1.33-1.08,2.41-2.41,2.41s-2.4-1.08-2.4-2.41,1.08-2.41,2.4-2.41,2.41,1.08,2.41,2.41"/>
      <path class="st8" d="M47.77,105.71s-3.01-5.82-9.92-4.64c-6.9,1.18-6.02,6.51-6.02,6.51,0,0,2.72-4.16,6.05-3.06,0,0-1.37,1.1-1.21,2.05,0,0,3.99-2.95,11.09-.85"/>
      <path class="st8" d="M49.1,102.56s.93-6.49-5.37-9.54c-6.31-3.05-8.68,1.8-8.68,1.8,0,0,4.62-1.8,6.7,1.03,0,0-1.76.09-2.18.96,0,0,4.96-.08,9.53,5.75"/>
      <path class="st8" d="M56.6,105.71s3.01-5.82,9.92-4.64c6.9,1.18,6.02,6.51,6.02,6.51,0,0-2.71-4.16-6.05-3.06,0,0,1.38,1.1,1.21,2.05,0,0-3.99-2.95-11.09-.85"/>
      <path class="st8" d="M55.28,102.56s-.93-6.49,5.37-9.54c6.3-3.05,8.68,1.8,8.68,1.8,0,0-4.62-1.8-6.7,1.03,0,0,1.76.09,2.17.96,0,0-4.96-.08-9.52,5.75"/>
      <path class="st8" d="M51.83,101.24s4.7-3.96,2.29-10.32c-2.49-6.55-8.07-4.39-8.07-4.39,0,0,4.41,1.37,4.26,4.88,0,0-1.42-1.02-2.3-.61,0,0,3.92,3.04,3.83,10.44"/>
    </g>
  </g>
  <g>
    <path class="st11" d="M-207.93-83.31c1.56.4,1.19,1.68-.84,2.86-2.03,1.17-4.94,1.8-6.51,1.39-1.57-.4-1.19-1.68.84-2.85,2.03-1.17,4.94-1.8,6.51-1.4"/>
    <g>
      <path class="st11" d="M-197.91-88.26c1.3.38,1,1.51-.65,2.52-1.66,1.01-4.05,1.52-5.35,1.14-1.3-.38-1.01-1.5.65-2.52,1.66-1.01,4.06-1.52,5.35-1.14"/>
      <path class="st11" d="M-188.62-90.52c.97.29.76,1.13-.48,1.89-1.24.75-3.02,1.13-3.99.85-.97-.29-.76-1.13.48-1.88,1.24-.76,3.03-1.13,3.99-.85"/>
      <path class="st5" d="M-207.88-69.35c2.47.64,1.88,2.66-1.32,4.51-3.2,1.85-7.79,2.84-10.27,2.2-2.47-.64-1.88-2.66,1.32-4.51,3.2-1.86,7.8-2.84,10.26-2.2"/>
      <path class="st1" d="M-213.55-75.73c1.9.49,1.44,2.05-1.02,3.47-2.46,1.43-6,2.19-7.9,1.69-1.9-.49-1.45-2.05,1.02-3.48,2.46-1.42,6-2.19,7.9-1.69"/>
      <path class="st1" d="M-178.93-90.11c1.24.4.97,1.53-.58,2.52-1.56.99-3.82,1.47-5.06,1.07-1.24-.4-.98-1.53.58-2.52,1.56-.99,3.82-1.47,5.06-1.07"/>
      <path class="st5" d="M-185.63-70.49c3.55,1.13,2.64,4.18-2.04,6.8-4.67,2.62-11.34,3.83-14.9,2.69-3.55-1.13-2.64-4.18,2.04-6.8,4.67-2.62,11.35-3.83,14.9-2.7"/>
    </g>
    <path class="st5" d="M-172.39-79.03c2.19.68,1.72,2.64-1.06,4.38-2.79,1.74-6.82,2.59-9.02,1.91-2.2-.68-1.72-2.64,1.06-4.38,2.78-1.74,6.82-2.59,9.02-1.91"/>
    <path class="st1" d="M-171.04-86.83c1.58.55,1.26,2.05-.7,3.35-1.96,1.29-4.83,1.9-6.4,1.34-1.58-.55-1.26-2.05.7-3.35,1.96-1.3,4.83-1.9,6.4-1.35"/>
    <path class="st5" d="M-146.44-69.32h-.19c-.15,0-.27-.02-.36-.06-.87-7.31-1.35-11.38-1.44-12.23h-.65c-2,4.02-3.7,7.27-5.08,9.75-.72-1.31-1.56-2.93-2.5-4.86-.78-1.63-1.57-3.26-2.37-4.88h-.67c-.81,6.47-1.45,10.75-1.92,12.85h2.56v-.58h-.19c-.29,0-.47-.09-.56-.28.08-1.89.34-4.48.8-7.77,1.87,3.46,3.22,6.33,4.07,8.63h.76c.72-2.07,2.19-4.97,4.39-8.7.29,1.73.57,4.63.86,8.7h2.48v-.56ZM-137.42-76.51c-.83-.86-1.91-1.29-3.23-1.29s-2.35.43-3.19,1.3c-.85.87-1.27,1.98-1.27,3.33s.41,2.54,1.24,3.37c.83.83,1.9,1.24,3.22,1.24s2.38-.42,3.22-1.27c.84-.85,1.26-1.96,1.26-3.34s-.42-2.48-1.25-3.34M-138.74-70.27c-.45.65-1.08.97-1.9.97-1.71,0-2.56-1.29-2.56-3.87s.85-3.84,2.54-3.84c.83,0,1.48.34,1.92,1.02.45.68.67,1.66.67,2.94,0,1.2-.22,2.13-.67,2.78M-125.69-69.34h-.17c-.28,0-.45-.07-.54-.21-.1-2.58-.1-5.25,0-8.03h-2.52v.56h.17c.35,0,.55.09.62.26.02.35.04.87.04,1.57,0,.14,0,.39.02.77.01.38.02.69.02.92,0,2.57-.73,3.85-2.2,3.85-.74,0-1.25-.25-1.53-.75-.24-.41-.35-1.08-.35-2,0-.19,0-.55-.02-1.08v-1.03c.02-1.19.08-2.22.17-3.08h-2.58v.56h.17c.3,0,.49.08.58.24.01.12.02,1.81.02,5.04,0,1,.26,1.77.77,2.32.52.55,1.27.83,2.25.83.55,0,1.07-.16,1.58-.48.51-.32.87-.71,1.11-1.19.06.62.12,1.11.19,1.46h2.22v-.56ZM-114.88-69.34h-.19c-.41,0-.62-.14-.62-.43,0-.21,0-.52-.03-.92-.02-.4-.03-.71-.03-.92v-2.82c0-2.28-1.01-3.42-3.03-3.42-1.12,0-2.01.6-2.7,1.81,0-.25-.05-.76-.15-1.53h-2.34v.56h.19c.39,0,.59.14.62.43.04.72.06,1.36.06,1.92v2.75c0,1.07-.04,2.12-.11,3.14h2.6v-.58h-.17c-.37,0-.58-.14-.63-.43-.01-.92-.02-1.71-.02-2.35v-1.57c0-.85.17-1.54.52-2.09.4-.63.97-.95,1.72-.95s1.23.23,1.49.69c.21.37.32,1.04.32,2,0,2.56-.03,4.33-.09,5.28h2.6v-.56ZM-108.44-70.23c-.46.44-.83.65-1.12.65-.49,0-.82-.15-1.01-.46-.19-.3-.28-.85-.28-1.63,0-.6.02-1.36.06-2.28.04-.92.06-1.56.06-1.91l.02-.8h.46c.42,0,1.01.01,1.78.04v-.95c-.94.07-1.69.12-2.24.13v-1.12c0-.17.02-.73.07-1.68l-1.76.41v2.33c-.31-.01-.69-.04-1.12-.07v.95c.46-.02.83-.04,1.1-.04h.02v.45c0,.91-.02,1.92-.07,3.04-.04,1.12-.07,1.76-.07,1.94,0,.92.18,1.59.54,2.01.36.42.98.63,1.85.63s1.6-.33,2.15-.99l-.45-.65ZM-94.3-70.59c0,.37-.06.6-.17.69-1.53.12-2.93.19-4.2.19h-.28c-.03-2.27-.04-3.82-.04-4.65v-.66c1.29,0,2.81.04,4.54.11v-1.1l-4.54.09v-.62c0-1.31.01-2.65.04-4.01h.24c1.39,0,2.7.05,3.94.15.14.09.21.32.21.71h.56v-1.81h-7.62v.58h.19c.27,0,.45.07.53.21.08.14.12,1.95.12,5.45,0,2.73-.05,4.89-.15,6.5h7.19v-1.83h-.56ZM-88.74-69.34h-.17c-.25,0-.43-.06-.54-.19-.05-2.13-.07-4.22-.06-6.27-.03-2.61,0-4.92.07-6.91h-2.54v.58h.19c.26,0,.44.06.52.19.07.07.11,2.14.11,6.2,0,2.35-.03,4.67-.08,6.96h2.48v-.56ZM-84.54-81.29c-.22-.21-.48-.32-.77-.32s-.56.11-.77.32c-.22.21-.33.47-.33.76s.11.56.33.77c.22.22.48.33.77.33s.56-.11.77-.33c.22-.22.33-.48.33-.77s-.11-.55-.33-.76M-83.66-69.36h-.17c-.34,0-.54-.09-.6-.28-.04-1.31-.06-2.57-.06-3.79,0-2.76.03-4.14.09-4.14h-2.54v.56h.19c.36,0,.57.14.62.43.04,1.06.06,2.11.06,3.16,0,1.33-.04,2.88-.11,4.65h2.52v-.58ZM-74.99-70.4h-.56v.19c0,.19-.03.32-.09.41-1.13.11-2.71.18-4.74.2.87-1.26,1.74-2.51,2.61-3.77,1.06-1.51,1.97-2.74,2.73-3.7v-.5h-6.98v1.44h.56v-.17c0-.16.02-.29.06-.37.81-.07,2.07-.11,3.79-.11h.37c-.87,1.25-1.74,2.5-2.61,3.75-1.1,1.58-2,2.8-2.71,3.66v.6h7.62l-.04-1.62ZM-66.14-69.34h-.19c-.3,0-.49-.11-.56-.34-.04-.11-.06-.42-.06-.92v-4c0-1.09-.23-1.9-.7-2.43-.47-.52-1.24-.78-2.31-.78-1.34,0-2.45.37-3.32,1.1v1.76h.54c.15-.57.43-1.07.85-1.5.42-.43.9-.64,1.45-.64,1.22,0,1.83.84,1.83,2.52v.28c-.17.14-.5.26-.99.36-.63.12-1.27.25-1.9.37-.73.17-1.28.42-1.64.75-.47.42-.71,1.03-.71,1.81s.24,1.35.71,1.76c.47.42,1.13.63,1.98.63.9,0,1.76-.37,2.58-1.12l.19.95h2.26v-.56ZM-68.85-70.46c-.63.62-1.18.93-1.64.93-1.02,0-1.53-.51-1.53-1.53,0-.62.26-1.12.78-1.49.52-.37,1.4-.67,2.63-.88v2.32c0,.27-.08.49-.25.65M-56.67-76.64c-.7-.77-1.63-1.16-2.8-1.16-1.08,0-2,.46-2.76,1.38v-1.2c0-1.79.04-3.49.11-5.1h-2.56v.58h.18c.33,0,.52.1.57.3.04,1.08.06,2.15.06,3.21v5.15c-.03,3.09-.04,4.72-.06,4.89h.8c.07-.09.19-.27.34-.56.11-.24.23-.4.35-.5.83.71,1.71,1.06,2.63,1.06,1.25,0,2.25-.45,3.03-1.36.77-.91,1.16-2.1,1.16-3.57,0-1.32-.35-2.37-1.05-3.14M-58.19-70.42c-.45.71-1.06,1.07-1.83,1.07-1.53,0-2.3-1.14-2.3-3.41,0-1.34.21-2.36.64-3.06.43-.7,1.04-1.06,1.82-1.06,1.56,0,2.33,1.16,2.33,3.46,0,1.29-.22,2.28-.67,3M-46.93-76.77c-.65-.68-1.56-1.03-2.75-1.03-1.32,0-2.37.42-3.16,1.27-.78.85-1.18,1.97-1.18,3.36s.41,2.46,1.22,3.32c.82.85,1.89,1.28,3.22,1.28s2.33-.31,3.19-.93v-1.62h-.6v.19c0,.39-.23.73-.68,1.03-.45.3-.99.45-1.6.45-.9,0-1.61-.34-2.13-1.03-.49-.65-.73-1.53-.73-2.65v-.28h6.12c0-.06,0-.15.02-.26v-.28c0-1.18-.32-2.12-.97-2.8M-52.06-74.25c0-.82.24-1.51.71-2.05.46-.51,1-.77,1.61-.77.7,0,1.21.29,1.55.88.29.5.43,1.15.43,1.94h-4.3ZM-39.72-70.23c-.46.44-.83.65-1.12.65-.49,0-.82-.15-1.01-.46-.19-.3-.28-.85-.28-1.63,0-.6.02-1.36.06-2.28.04-.92.06-1.56.06-1.91l.02-.8h.46c.42,0,1.01.01,1.78.04v-.95c-.94.07-1.69.12-2.24.13v-1.12c0-.17.02-.73.07-1.68l-1.76.41v2.33c-.31-.01-.69-.04-1.12-.07v.95c.46-.02.83-.04,1.1-.04h.02v.45c0,.91-.02,1.92-.06,3.04-.04,1.12-.07,1.76-.07,1.94,0,.92.18,1.59.54,2.01.36.42.98.63,1.85.63s1.6-.33,2.15-.99l-.45-.65ZM-29.48-69.34h-.19c-.32,0-.52-.09-.58-.28-.04-.96-.06-1.65-.06-2.09,0-.39.01-.89.04-1.51.02-.62.04-1.05.04-1.29,0-2.19-1.01-3.29-3.03-3.29-1.2,0-2.1.55-2.7,1.66v-2.32c0-1.61.02-3.03.07-4.25h-2.56v.6h.19c.26,0,.44.06.54.19.06.07.09,2.02.09,5.83v3.14c0,1.27-.03,2.67-.09,4.2h2.52v-.58h-.19c-.27,0-.46-.07-.56-.21-.01-.59-.02-1.09-.02-1.52v-2.23c0-2.32.72-3.48,2.16-3.48.67,0,1.15.24,1.44.73.29.49.44,1.24.44,2.26s-.03,2.68-.09,5.02l2.54-.02v-.56Z"/>
  </g>
  <g>
    <g class="st14">
      <rect class="st2" x="26.56" y="-91.93" width="32.44" height="34.77"/>
    </g>
    <g>
      <path class="st12" d="M76.33-65.92h-4.48v-17.24h7.13c1.94,0,3.42.5,4.45,1.51,1.03,1.01,1.54,2.42,1.54,4.25s-.51,3.25-1.54,4.25c-1.03,1.01-2.51,1.51-4.45,1.51h-2.65v5.71ZM76.33-75.25h1.49c1.65,0,2.47-.72,2.47-2.15s-.82-2.15-2.47-2.15h-1.49v4.3Z"/>
      <path class="st12" d="M97.3-68.92h-6.4l-1.03,2.99h-4.78l6.56-17.24h4.89l6.56,17.24h-4.78l-1.03-2.99ZM96.11-72.32l-2.01-5.74-2.01,5.74h4.02Z"/>
      <polygon class="st12" points="105.41 -65.92 105.41 -83.16 109.89 -83.16 118.17 -72.62 118.17 -83.16 122.62 -83.16 122.62 -65.92 118.17 -65.92 109.89 -76.46 109.89 -65.92 105.41 -65.92"/>
      <polygon class="st12" points="133.12 -79.36 133.12 -65.92 128.64 -65.92 128.64 -79.36 124.95 -79.36 124.95 -83.16 136.8 -83.16 136.8 -79.36 133.12 -79.36"/>
      <path class="st12" d="M148.89-68.92h-6.4l-1.03,2.99h-4.78l6.56-17.24h4.89l6.56,17.24h-4.78l-1.03-2.99ZM147.7-72.32l-2.01-5.74-2.01,5.74h4.02Z"/>
      <rect class="st12" x="157" y="-83.16" width="4.48" height="17.24"/>
    </g>
  </g>
  <g>
    <path class="st11" d="M-428.38-86.26c1.67.43,1.27,1.8-.9,3.06-2.17,1.25-5.29,1.92-6.96,1.49-1.67-.43-1.27-1.8.9-3.05,2.17-1.25,5.28-1.93,6.96-1.49"/>
    <g>
      <path class="st11" d="M-417.65-91.55c1.39.41,1.08,1.61-.7,2.69-1.77,1.08-4.33,1.63-5.73,1.22-1.39-.41-1.08-1.61.7-2.69,1.77-1.08,4.34-1.63,5.73-1.22"/>
      <path class="st11" d="M-407.72-93.96c1.04.31.81,1.21-.52,2.02-1.32.81-3.23,1.21-4.27.91-1.04-.3-.81-1.2.52-2.01,1.33-.81,3.24-1.22,4.27-.91"/>
      <path class="st5" d="M-428.31-71.32c2.64.68,2.01,2.84-1.41,4.82-3.42,1.98-8.33,3.04-10.98,2.35-2.64-.68-2.01-2.84,1.41-4.82,3.42-1.98,8.34-3.04,10.98-2.36"/>
      <path class="st1" d="M-434.38-78.15c2.03.52,1.54,2.19-1.09,3.72-2.63,1.53-6.42,2.34-8.45,1.81-2.04-.53-1.55-2.19,1.09-3.72,2.63-1.52,6.42-2.34,8.45-1.81"/>
      <path class="st1" d="M-397.35-93.53c1.32.43,1.04,1.64-.62,2.69-1.67,1.06-4.09,1.57-5.41,1.14-1.32-.42-1.04-1.63.62-2.69,1.66-1.06,4.09-1.57,5.41-1.14"/>
      <path class="st5" d="M-404.52-72.55c3.8,1.21,2.82,4.47-2.18,7.27-5,2.8-12.13,4.09-15.93,2.88-3.8-1.22-2.82-4.47,2.18-7.27,5-2.81,12.14-4.1,15.93-2.89"/>
    </g>
    <path class="st5" d="M-390.38-81.68c2.35.73,1.84,2.82-1.14,4.68-2.98,1.86-7.29,2.77-9.64,2.05-2.35-.73-1.84-2.83,1.14-4.68,2.98-1.86,7.29-2.77,9.64-2.04"/>
    <path class="st1" d="M-388.93-90.01c1.69.59,1.35,2.19-.75,3.59-2.09,1.39-5.16,2.03-6.84,1.44-1.69-.59-1.35-2.19.75-3.59,2.1-1.39,5.16-2.04,6.84-1.44"/>
    <g>
      <path class="st6" d="M-368.86-83.45c0,2.76-1.79,4.14-5.36,4.14h-1.73v2.69c0,.82.03,1.72.08,2.69.08.18.28.27.6.27h.21v.62l-2.99.02c.08-2.36.12-4.7.12-7.01,0-3.99-.05-6.06-.13-6.21-.09-.15-.28-.23-.57-.23h-.21v-.62h5.24c1.48,0,2.65.31,3.48.94.84.63,1.26,1.52,1.26,2.69M-371.09-83.27c0-1.94-1.24-2.91-3.72-2.91-.34,0-.69.01-1.05.04-.07,1.38-.1,2.76-.1,4.15v1.75c.29.01.66.02,1.11.02,2.51,0,3.76-1.02,3.76-3.05"/>
      <path class="st6" d="M-359.5-73.04h-2.49l-.21-1.05c-.91.82-1.86,1.24-2.85,1.24-.94,0-1.66-.23-2.18-.69-.52-.46-.78-1.11-.78-1.95s.26-1.53.78-2c.4-.36,1-.63,1.81-.82.7-.14,1.4-.27,2.1-.41.54-.11.9-.24,1.09-.39v-.31c0-1.86-.67-2.78-2.02-2.78-.61,0-1.14.24-1.6.71-.46.47-.77,1.03-.94,1.66h-.6v-1.94c.96-.81,2.19-1.22,3.67-1.22,1.18,0,2.03.29,2.55.87.52.58.77,1.47.77,2.68v4.41c0,.55.02.89.06,1.01.08.25.29.37.62.37h.21v.62ZM-362.22-75.62v-2.56c-1.36.23-2.33.56-2.91.97-.58.41-.86.96-.86,1.65,0,1.13.56,1.69,1.69,1.69.51,0,1.12-.34,1.81-1.03.18-.18.27-.42.27-.72"/>
      <path class="st6" d="M-351.05-80.32h-.7v-.21c0-.65-.3-.97-.89-.97-.66,0-1.2.27-1.63.8-.51.65-.76,1.59-.76,2.83,0,1.81.01,3.12.04,3.92.07.19.29.29.66.29h.21v.64h-2.74c.04-.67.07-1.68.1-3.01v-3.65c0-.99-.02-1.76-.06-2.31-.16-.1-.37-.14-.62-.14h-.2v-.62h2.45c.1.91.14,1.59.12,2.04.87-1.5,1.78-2.25,2.74-2.25.44,0,.87.08,1.28.23v2.41Z"/>
      <path class="st6" d="M-346.27-73.04h-2.8c0-.87.01-2.16.04-3.87.03-1.71.04-2.99.04-3.85,0-2.45-.03-4.62-.08-6.52-.05-.34-.28-.52-.68-.52h-.21v-.64h2.87c-.07,2.86-.1,5.38-.1,7.55v4.06c0,.91.02,1.81.06,2.7.07.3.3.45.68.45h.19v.62ZM-340.45-73.04h-2.6l-.08-.1c-.84-1.18-2.12-2.96-3.83-5.34.67-.7,1.35-1.39,2.04-2.08.81-.85,1.46-1.58,1.94-2.19h2.21c-.98.66-2.45,1.92-4.43,3.79.89,1.22,1.53,2.08,1.9,2.56.73.98,1.44,1.84,2.12,2.6.19.1.34.15.45.15h.29v.62Z"/>
      <path class="st6" d="M-324.78-82.75c-.47,1.02-1.16,2.56-2.08,4.64-.92,2.21-1.55,3.93-1.88,5.16h-1.51c-.1-.6-.3-1.37-.6-2.31-.34-1-.91-2.55-1.69-4.64-1.09,2.65-1.88,4.96-2.37,6.95l-1.42-.02c-.27-1.17-.86-2.89-1.75-5.18-.36-.96-.88-2.26-1.57-3.89-.1-.05-.23-.08-.41-.08h-.21v-.62h2.54c.29,1.21,1.11,3.56,2.45,7.07.7-1.59,1.42-3.61,2.17-6.06-.07-.26-.28-.39-.64-.39h-.21v-.62h2.52c.47,1.76,1.25,4.12,2.35,7.07,1.11-2.4,1.92-4.46,2.43-6.19-.1-.18-.3-.27-.6-.27h-.21v-.62h2.68Z"/>
      <path class="st6" d="M-315.3-73.04h-2.49l-.21-1.05c-.91.82-1.86,1.24-2.85,1.24-.94,0-1.66-.23-2.19-.69-.52-.46-.78-1.11-.78-1.95s.26-1.53.78-2c.4-.36,1-.63,1.81-.82.7-.14,1.4-.27,2.1-.41.54-.11.9-.24,1.09-.39v-.31c0-1.86-.67-2.78-2.02-2.78-.61,0-1.14.24-1.6.71-.46.47-.77,1.03-.94,1.66h-.6v-1.94c.96-.81,2.19-1.22,3.67-1.22,1.18,0,2.03.29,2.55.87.52.58.77,1.47.77,2.68v4.41c0,.55.02.89.06,1.01.08.25.29.37.62.37h.21v.62ZM-318.02-75.62v-2.56c-1.36.23-2.33.56-2.91.97-.58.41-.86.96-.86,1.65,0,1.13.56,1.69,1.69,1.69.51,0,1.12-.34,1.81-1.03.18-.18.27-.42.27-.72"/>
      <path class="st6" d="M-304.51-82.75c-.59,1.14-1.27,2.57-2.02,4.29l-2.68,6.06c-.49,1.11-.83,1.9-1.01,2.37-.36.89-.63,1.71-.82,2.45h-1.94c.89-1.53,1.69-3.1,2.4-4.73l.44-1-.82-2.12c-.37-.99-1.33-3.2-2.88-6.65-.08-.04-.21-.06-.37-.06h-.21v-.62h2.68c.33,1.18,1.24,3.62,2.74,7.3.89-2.05,1.35-3.11,1.38-3.18.48-1.2.87-2.34,1.18-3.42-.1-.05-.24-.08-.43-.08h-.21v-.62h2.58Z"/>
    </g>
  </g>
  <g>
    <g>
      <polygon class="st13" points="-449.16 20.23 -444.11 25.28 -444.11 20.23 -449.16 20.23"/>
      <polygon class="st13" points="-429.16 30.59 -429.16 35.64 -424.11 35.64 -429.16 30.59"/>
      <polygon class="st13" points="-444.11 15.61 -439.06 20.66 -439.06 15.61 -444.11 15.61"/>
      <polygon class="st13" points="-434.47 15.61 -429.42 20.66 -429.42 15.61 -434.47 15.61"/>
      <polygon class="st13" points="-434.2 35.19 -434.2 40.24 -429.15 40.24 -434.2 35.19"/>
      <polygon class="st13" points="-443.87 35.19 -443.87 40.24 -438.82 40.24 -443.87 35.19"/>
      <polygon class="st3" points="-439.07 11.01 -439.07 20.65 -434.02 20.65 -434.02 25.7 -439.07 20.65 -439.07 20.65 -444.11 15.61 -444.11 25.27 -449.16 20.23 -449.16 29.9 -434.2 44.86 -434.2 35.2 -439.25 35.2 -439.25 30.15 -434.2 35.2 -434.2 35.2 -429.15 40.24 -429.15 30.6 -424.11 35.64 -424.11 25.97 -439.07 11.01"/>
      <polygon class="st13" points="-439.07 20.65 -434.02 25.7 -434.02 20.65 -439.07 20.65"/>
      <polygon class="st13" points="-439.25 30.15 -439.25 35.2 -434.2 35.2 -439.25 30.15"/>
    </g>
    <g>
      <path class="st3" d="M-372.69,22.61c1.43.17,1.68.47,1.75,1.58.03.56.05.84.05,2.38v4.54l-7.23-8.72h-2.55v.22c.65.12,1.13.25,1.54.78.17.21.25.43.25.75v4.95c0,1.59-.04,2.22-.06,2.7-.04,1.04-.29,1.21-1.56,1.49v.22h3.88v-.22c-1.38-.22-1.62-.46-1.66-1.48-.02-.55-.05-1.07-.05-2.7v-4.81l7.67,9.41h.3v-7.12c0-1.54.03-1.87.05-2.33.03-1.16.16-1.36,1.36-1.63v-.22h-3.75v.22Z"/>
      <path class="st3" d="M-331.3,34.5c1.31,0,2.73-.32,3.23-.44.29-.5.83-2.13,1.01-2.8l-.31-.1c-.82,1.68-1.72,2.89-3.82,2.89-3.34,0-5.24-2.61-5.24-6.44,0-3.08,1.56-5.8,4.89-5.8.73,0,1.53.1,2.13.33,1.08.42,1.41,1.25,1.76,2.47l.32-.06c-.11-.79-.2-1.88-.29-2.79-.59-.07-1.81-.4-3.36-.4-4.4,0-7.31,2.6-7.31,6.6,0,3.36,2.19,6.54,7,6.54Z"/>
      <path class="st3" d="M-391.25,32.64c-.39-.43-.79-1.02-1.39-1.94-.51-.77-1.31-2.12-1.63-2.68,1.18-.51,2.18-1.45,2.18-2.91,0-.91-.42-1.67-1.04-2.09-.63-.45-1.54-.64-2.75-.64h-4.17v.22c1.35.2,1.46.35,1.46,1.69v7.26c0,1.37-.15,1.5-1.46,1.72v.22h4.31v-.22c-1.35-.2-1.48-.38-1.48-1.72v-3.2h.63c.82,0,1.02.12,1.45.87.59,1.03,1.36,2.32,1.93,3.13.67.92,1.04,1.13,2.59,1.22.14.01.56.01.68.01l.05-.21c-.68-.14-.96-.28-1.38-.74ZM-396.29,28.01h-.92v-4.36c0-.51.05-.66.2-.76.13-.09.43-.15,1.01-.15,1.37,0,2.38.82,2.38,2.7,0,1.02-.22,1.7-.87,2.17-.47.35-.97.39-1.81.39Z"/>
      <path class="st3" d="M-403.71,22.42c-.73-.53-1.76-.79-3.11-.79h-4.67v.25c1.5.22,1.63.32,1.63,1.95v8.19c0,1.56-.13,1.73-1.66,1.94v.25h4.92v-.25c-1.52-.23-1.7-.35-1.7-1.9v-3.47l1.27.3c.15.04.33.07.52.07,1.82,0,4.07-1.22,4.07-3.85,0-1.23-.5-2.11-1.27-2.69ZM-407,28.4c-.54,0-1.05-.07-1.31-.18v-4.93c0-.66.07-.93.23-1.06.12-.11.52-.2,1.01-.2,1.66,0,2.9.93,2.9,3.11,0,2.7-1.64,3.26-2.82,3.26Z"/>
      <path class="st3" d="M-361.27,33.75c1.16,0,2.41-.28,2.85-.39.25-.44.73-1.88.89-2.47l-.27-.09c-.72,1.48-1.52,2.55-3.37,2.55-2.95,0-4.63-2.3-4.63-5.68,0-2.72,1.37-5.12,4.31-5.12.64,0,1.35.08,1.88.29.96.37,1.24,1.11,1.56,2.18l.28-.05c-.1-.7-.18-1.66-.25-2.46-.52-.06-1.6-.35-2.97-.35-3.89,0-6.45,2.29-6.45,5.83,0,2.96,1.94,5.77,6.18,5.77Z"/>
      <path class="st3" d="M-383.32,33.28c-1.36-.25-1.48-.39-1.48-1.75v-7.16c0-1.45.12-1.57,1.48-1.76v-.22h-4.32v.22c1.35.22,1.46.31,1.46,1.76v7.16c0,1.36-.13,1.51-1.46,1.75v.22h4.32v-.22Z"/>
      <path class="st3" d="M-277.53,22.09h-.21c-.19.25-.36.31-.85.31h-7.16c-.59,0-.72-.03-.94-.31h-.18c-.05.86-.13,1.82-.25,2.74h.28c.15-.48.27-.86.5-1.29.24-.41.4-.7,1.32-.7h2.06v8.73c0,1.31-.09,1.46-1.55,1.7v.22h4.52v-.22c-1.47-.21-1.6-.39-1.6-1.7v-8.73h2c1,0,1.24.24,1.53.86.17.32.27.62.4,1.12l.26-.05c-.09-.93-.14-1.97-.14-2.69Z"/>
      <path class="st3" d="M-289.22,32.64c-.39-.43-.79-1.02-1.39-1.94-.51-.77-1.31-2.12-1.63-2.68,1.18-.51,2.18-1.45,2.18-2.91,0-.91-.42-1.67-1.04-2.09-.63-.45-1.54-.64-2.75-.64h-4.17v.22c1.35.2,1.46.35,1.46,1.69v7.26c0,1.37-.14,1.5-1.46,1.72v.22h4.31v-.22c-1.35-.2-1.48-.38-1.48-1.72v-3.2h.63c.82,0,1.02.12,1.45.87.59,1.03,1.36,2.32,1.93,3.13.66.92,1.04,1.13,2.59,1.22.13.01.56.01.68.01l.05-.21c-.68-.14-.96-.28-1.38-.74ZM-294.26,28.01h-.92v-4.36c0-.51.05-.66.2-.76.13-.09.43-.15,1.01-.15,1.37,0,2.38.82,2.38,2.7,0,1.02-.22,1.7-.87,2.17-.47.35-.97.39-1.81.39Z"/>
      <path class="st3" d="M-303.99,22.61c1.42.16,1.57.44,1.62,1.31.04.52.06,1.04.06,2.53v2.26c0,2.71-.51,4.29-3.06,4.29-2.37,0-3.35-1.5-3.35-4.06v-4.45c0-1.53.11-1.65,1.38-1.89v-.22h-4.11v.22c1.27.22,1.37.35,1.37,1.89v4.58c0,1.96.33,3.03,1.39,3.88.68.54,1.71.8,2.75.8,1.18,0,2.25-.31,3.01-1.08.98-1.01,1.15-2.35,1.15-3.97v-2.24c0-1.5.05-2.06.07-2.49.05-.85.11-1.16,1.34-1.36v-.22h-3.63v.22Z"/>
      <path class="st3" d="M-347.05,30.97c-.21.49-.42.93-.69,1.3-.43.62-.67.77-1.52.77h-1.57c-.98,0-1.4-.07-1.4-1.22v-3.97h2.06c1.12,0,1.23.22,1.51,1.38h.23v-3.24h-.23c-.21,1.13-.35,1.38-1.54,1.38h-2.04v-3.98c0-.45.04-.51.48-.51h1.76c1.01,0,1.24.05,1.57.51.21.32.44.94.57,1.38l.25-.04c-.06-.54-.13-1.74-.13-2.35-.29.03-.83.03-2.34.03h-4.9v.22c1.31.23,1.37.34,1.37,1.82v7.1c0,1.42-.11,1.54-1.6,1.74v.22h7.86c.13-.49.44-1.9.52-2.47l-.23-.05Z"/>
      <path class="st3" d="M-313.61,27.8c0-3.33-2.53-5.65-5.42-5.65-3.46,0-5.58,2.89-5.58,5.95s2.4,5.65,5.46,5.65,5.55-2.37,5.55-5.95ZM-322.98,27.62c0-3.33,1.68-5.08,3.61-5.08,2.4,0,4.11,2.11,4.11,5.78,0,3.3-1.58,5.04-3.54,5.04-2.51,0-4.18-2.41-4.18-5.73Z"/>
    </g>
  </g>
</svg>